                        =!HD DESI ROCKER RELEASES!=






Release Title: The Sorcerer's Apprentice 2010 720p BRrip[Dual-Audio][Eng-Hindi]~BONIIN
Release Date:  14 July 2010 (USA)
Release Length: 1h 44mn

Tag: It's The Coolest Job Ever.
 
Storyline : Balthazar Blake (Nicolas Cage) is a master sorcerer in modern-day Manhattan trying to defend the city 
from his arch-nemesis, Maxim Horvath (Alfred Molina). Balthazar can't do it alone, so he recruits Dave Stutler (Jay Baruchel), 
a seemingly average guy who demonstrates hidden potential, as his reluctant protégé. The sorcerer gives his unwilling accomplice 
a crash course in the art and science of magic, and together, these unlikely partners work to stop the forces of darkness. It'll 
take all the courage Dave can muster to survive his training, save the city and get the girl as he becomes The Sorcerer's Apprentice



Cast:


Nicolas Cage  ...  Balthazar Blake
  
Jay Baruchel  ...  Dave  

Alfred Molina  ...  Maxim Horvath 
 
Teresa Palmer  ...  Becky Barnes 
 
Toby Kebbell  ...  Drake Stone
  
Omar Benson Miller  ...  Bennet 
 
Monica Bellucci  ...  Veronica
  
Alice Krige  ...  Morgana le Fay  

Jake Cherry  ...  Young Dave
  
James A. Stephens  ...  Merlin
  
Gregory Woo  ...  Sun-Lok
  
Wai Ching Ho  ...  Chinese Woman
  
Jason R. Moore  ...  Subway Mugger
  
Robert Capron  ...  Young Dave's Pal (as Robert B. Capron) 
 
Peyton List  ...  Young Becky (as Peyton Roi List)  



General INFO:

Title............................: The Sorcerer's Apprentice 2010 720p BRrip[Dual-Audio][Eng-Hindi]~BONIIN
Genre............................: Action | Adventure | Comedy | Drama | Fantasy 
Directer.........................: Jon Turteltaub
Writer...........................: Lawrence Konner, Mark Rosenthal 
IMDB.............................: http://www.imdb.com/title/tt0963966/
year.............................: 14 July 2010 (USA)
User Rating......................: 6.7/10 (16,841 votes)      
VIDEO Source.....................: The Sorcerer's Apprentice 2010 1080p Bluray x264-CBGB                                                   
File size........................: 2.47 GB
Run time.........................: 1h 44mn
Languages........................: English,Hindi
Subtittle........................: English
Ripper...........................: BONIIN[BOW]



Video
ID                               : 1
Format                           : AVC-Mkv
Format/Info                      : H264-Advanced Video Codec
Format profile                   : High@L4.1
Format settings, CABAC           : Yes
Format settings, ReFrames        : 4 frames
Muxing mode                      : Container profile=Unknown@4.1
Codec ID                         : V_MPEG4/ISO/AVC
Duration                         : 1h 44mn
Bit rate                         : 2 542 Kbps
Nominal bit rate                 : 2 501 Kbps
Overall bit rate                 : 3 377 Kbps
Width                            : 1 280 pixels
Height                           : 544 pixels
Display aspect ratio             : 2.35:1
Frame rate                       : 25.000 fps
Resolution                       : 8 bits
Colorimetry                      : 4:2:0
Scan type                        : Progressive
Bits/(Pixel*Frame)               : 0.146
Stream size                      : 1.86 GiB (75%)
Title                            : RIPPER~BONIIN
Writing library                  : x264 core 108 r1766+9_DANGEROUS 6a74947
Encoding settings                : cabac=1 / ref=4 / deblock=1:0:0 
Encoded date                     : UTC 2010-12-17 11:19:34
Writing application              : mkvmerge v3.3.0 ('Language') built on Mar 24 2010 14:59:24
Writing library                  : libebml v0.8.0 + libmatroska v0.9.



Audio #1
ID                               : 2
Format                           : AC-3
Format/Info                      : Audio Coding 3
Codec ID                         : A_AC3
Duration                         : 1h 44mn
Bit rate mode                    : Constant
Bit rate                         : 384 Kbps
Channel(s)                       : 6 channels
Channel positions                : Front: L C R, Side: L R, LFE
Sampling rate                    : 48.0 KHz
Stream size                      : 287 MiB (11%)
Title                            : RIPPER~BONIIN
Language                         : English



Audio #2
ID                               : 3
Format                           : AC-3
Format/Info                      : Audio Coding 3
Codec ID                         : A_AC3
Duration                         : 1h 44mn
Bit rate mode                    : Constant
Bit rate                         : 384 Kbps
Channel(s)                       : 6 channels
Channel positions                : Front: L C R, Side: L R, LFE
Sampling rate                    : 48.0 KHz
Video delay                      : 14ms
Stream size                      : 287 MiB (11%)
Title                            : RIPPER~BONIIN
Language                         : Hindi



Screenshots:
 
http://img262.imageshack.us/img262/3005/sapprentice2202241.jpg 
http://img222.imageshack.us/img222/2065/sapprentice2206331.jpg 
http://img249.imageshack.us/img249/5329/214448934382418007091.png 
http://img690.imageshack.us/img690/127/683604644090022743041.png 
http://img442.imageshack.us/img442/672/032563726425071899651.png 
http://img227.imageshack.us/img227/4883/619171488987357643851.png 
http://img204.imageshack.us/img204/8950/765583008853560560151.png